<svg width="100" height="64" viewBox="0 0 100 64" fill="none" xmlns="http://www.w3.org/2000/svg">
<path d="M1.63007 11.085C1.75007 11.065 1.87007 11.045 2.01007 11.005C2.57007 10.865 3.27007 10.725 4.11007 10.585C4.95007 10.445 5.79007 10.385 6.67007 10.405C6.85007 10.405 7.01007 10.325 7.13007 10.145C7.23007 9.96499 7.27007 9.76499 7.23007 9.54499C9.85007 8.98499 12.4901 8.52499 15.1901 8.14499C14.9101 8.56499 14.6301 8.94499 14.4101 9.26499C14.0901 9.70499 13.7701 10.145 13.4701 10.585C13.1701 11.025 12.8501 11.545 12.4701 12.165C12.0701 12.805 11.5901 13.685 11.0101 14.805C10.4501 15.945 9.85007 17.225 9.25007 18.645C8.63007 20.085 8.23007 21.545 8.01007 23.025C7.81007 24.525 7.93007 25.565 8.41007 26.165C8.87007 26.625 9.47007 26.785 10.1901 26.645C10.5701 26.525 10.7901 26.325 10.8301 26.005C10.8501 25.705 10.6901 25.485 10.3101 25.365C10.1901 25.345 10.0901 25.325 10.0101 25.325C9.89007 25.345 9.81007 25.325 9.73007 25.305C9.65007 25.265 9.59007 25.185 9.53007 25.065C9.45007 24.845 9.41007 24.565 9.39007 24.265C9.39007 23.965 9.41007 23.685 9.43007 23.445C9.77007 21.245 10.5701 18.905 11.8301 16.425C13.0701 13.945 14.3901 11.765 15.7501 9.84499C15.7901 9.80499 15.8301 9.74499 15.8701 9.68499L16.3901 8.96499C16.6101 8.68499 16.8101 8.42499 17.0301 8.20499C17.2301 7.96499 17.4101 7.84499 17.5501 7.82499L19.7901 7.54499C21.2701 7.36499 22.6501 7.20499 23.9501 7.10499C25.2501 7.00499 26.8301 6.96499 28.6901 7.00499C28.8301 7.00499 28.9501 7.00499 29.0901 7.02499C29.2101 7.04499 29.3501 7.06499 29.4701 7.06499C29.7701 7.04499 29.9901 6.96499 30.1501 6.78499C30.2901 6.60499 30.3501 6.42499 30.3101 6.22499C30.2701 6.00499 30.1101 5.86499 29.8301 5.76499C29.2301 5.60499 28.2901 5.54499 27.0101 5.60499C25.7301 5.64499 24.4101 5.72499 23.0101 5.86499C21.6301 5.98499 20.4901 6.10499 19.5901 6.20499C19.3101 6.24499 19.0901 6.26499 18.9101 6.28499C18.9301 5.80499 18.7901 5.52499 18.4701 5.44499C18.1701 5.36499 17.8701 5.40499 17.5701 5.58499C17.2701 5.78499 17.0701 5.98499 16.9101 6.18499C16.8101 6.30499 16.7101 6.40499 16.6101 6.48499C16.4901 6.58499 16.3701 6.62499 16.2101 6.64499C15.2501 6.78499 13.7301 7.00499 11.6501 7.36499C9.57007 7.70499 7.51007 8.10499 5.49007 8.56499C3.45007 9.00499 2.03007 9.46499 1.21007 9.92499C0.87007 10.185 0.75007 10.445 0.85007 10.745C0.95007 11.025 1.21007 11.145 1.63007 11.085ZM19.4277 19.645C19.7677 19.585 20.1877 19.365 20.6877 19.045C21.2077 18.705 21.6677 18.365 22.1077 18.025C22.5477 17.665 22.8077 17.445 22.9077 17.325C22.6877 17.805 22.3677 18.585 21.9477 19.605C21.5077 20.645 21.1677 21.525 20.9277 22.285C20.8277 22.605 20.9077 22.865 21.1277 23.045C21.3477 23.245 21.5877 23.305 21.8677 23.285C22.1477 23.245 22.3477 23.085 22.4277 22.785C22.8677 20.885 23.7477 18.665 25.0477 16.085C26.3477 13.505 27.8877 10.845 29.6677 8.08499C29.8877 7.70499 29.9077 7.38499 29.7277 7.12499C29.5477 6.86499 29.3077 6.72499 28.9877 6.70499C28.6677 6.68499 28.4077 6.82499 28.1877 7.14499C27.2277 8.86499 26.4877 10.185 26.0077 11.105C25.6477 11.805 25.3077 12.405 25.0077 12.925C24.7077 13.445 24.3477 13.985 23.9477 14.545C23.3477 15.385 22.4677 16.305 21.2677 17.265C20.5677 17.845 20.0477 18.165 19.7477 18.265C19.4277 18.365 19.2277 18.305 19.1877 18.085C19.1477 17.865 19.1677 17.585 19.2877 17.225C19.3877 16.845 19.5277 16.505 19.6677 16.165C19.8277 15.805 19.9477 15.565 20.0277 15.405C20.0877 15.285 20.0477 15.145 19.9477 15.005C19.8477 14.865 19.7077 14.765 19.5477 14.685C19.3877 14.605 19.2277 14.605 19.1077 14.665C18.9277 14.765 18.7077 14.925 18.4877 15.125C17.8477 14.505 17.1477 14.525 16.3877 15.205C14.2877 16.965 13.1077 18.385 12.8477 19.485C12.5877 20.585 12.8877 21.025 13.7277 20.785C14.0477 20.645 14.4677 20.365 14.9877 19.925C15.5277 19.485 16.0677 19.005 16.6077 18.525C17.1277 18.025 17.5677 17.645 17.9077 17.365C17.7277 18.265 17.8077 18.885 18.1277 19.245C18.4677 19.605 18.9077 19.745 19.4277 19.645ZM15.0077 18.245L15.2477 17.965C15.4077 17.785 15.6077 17.585 15.8277 17.365C16.0677 17.125 16.2677 16.945 16.4677 16.765C16.6677 16.605 16.8077 16.525 16.8877 16.525C16.8077 16.625 16.6677 16.765 16.4877 16.945C16.2877 17.145 16.0677 17.345 15.8477 17.545C15.6277 17.765 15.4277 17.925 15.2677 18.065C15.1077 18.205 15.0077 18.265 15.0077 18.245ZM34.1323 9.52499C34.5923 8.70499 35.0323 8.00499 35.4523 7.40499C35.6923 7.02499 35.8723 6.74499 35.9723 6.56499C36.1123 6.30499 36.0923 6.06499 35.9723 5.84499C35.8323 5.62499 35.6323 5.54499 35.3323 5.56499C35.0523 5.58499 34.7323 5.82499 34.3723 6.26499C30.9923 10.885 28.2523 15.805 26.1923 21.025L26.1323 21.165C25.7923 21.965 25.4523 22.865 25.1523 23.885C25.0923 24.125 25.1723 24.305 25.3923 24.445C25.5923 24.585 25.8323 24.645 26.0923 24.625C26.3323 24.625 26.5123 24.525 26.5923 24.325C26.8723 23.445 27.2723 22.405 27.7523 21.185C28.2523 19.965 28.6923 18.925 29.0723 18.065C29.3723 18.545 29.9923 18.785 30.9323 18.765C31.8723 18.745 33.0123 18.565 34.3323 18.245C35.6323 17.905 36.7123 17.565 37.5123 17.225C37.7723 17.105 37.8923 16.965 37.9323 16.765C37.9523 16.565 37.8723 16.405 37.7323 16.265C37.5723 16.145 37.3723 16.105 37.1123 16.165C36.3723 16.445 35.6123 16.685 34.8323 16.885C34.0523 17.085 33.3523 17.245 32.7123 17.345C32.0723 17.445 31.5123 17.485 31.0323 17.465C30.5523 17.445 30.4523 17.285 30.7323 17.005C31.3723 16.465 32.1723 16.045 33.1123 15.725C33.3923 15.605 33.5123 15.405 33.5123 15.145C33.4923 14.885 33.3923 14.665 33.1723 14.485C32.9723 14.305 32.7123 14.245 32.4123 14.345C32.0523 14.485 31.6723 14.705 31.2523 15.005C30.8323 15.285 30.5323 15.505 30.3323 15.665C30.3523 15.465 30.5723 14.985 30.9923 14.245C31.3923 13.485 31.8323 12.725 32.2923 11.945C32.7523 11.185 33.0723 10.665 33.2323 10.385C33.3323 10.245 33.4123 10.145 33.4723 10.105C33.5323 10.065 33.5923 10.025 33.6523 10.025C33.7123 10.005 33.7923 9.96499 33.8723 9.90499C33.9323 9.84499 34.0323 9.72499 34.1323 9.52499ZM37.6345 14.565C37.2745 15.005 36.8345 15.685 36.2945 16.585C35.7545 17.485 35.4945 18.325 35.5145 19.085C35.7345 20.145 36.2545 20.665 37.0945 20.645C37.9345 20.625 38.8745 20.325 39.9345 19.725C40.9945 19.125 41.9545 18.485 42.8345 17.785C43.7145 17.085 44.2945 16.585 44.6145 16.285C44.7945 16.085 44.8745 15.925 44.8345 15.765C44.7945 15.605 44.7145 15.505 44.5545 15.445C44.4145 15.385 44.2545 15.425 44.0945 15.525C44.0745 15.545 44.0345 15.585 43.9545 15.645C43.6745 15.865 43.1745 16.265 42.4345 16.805C41.6945 17.345 40.8945 17.865 40.0145 18.365C39.1345 18.865 38.3145 19.165 37.5945 19.265C37.1145 19.305 36.9145 19.125 36.9945 18.725C37.0545 18.325 37.2945 17.825 37.6745 17.245C38.0545 16.645 38.4545 16.065 38.8945 15.505C39.0545 15.245 39.0545 15.025 38.8945 14.805C38.7345 14.605 38.5345 14.465 38.2745 14.405C37.9945 14.345 37.7945 14.385 37.6345 14.565ZM38.8145 13.345C38.7345 13.705 38.7545 13.925 38.8745 13.985C39.0545 14.025 39.3345 13.925 39.7145 13.645C40.0945 13.385 40.4545 13.065 40.8145 12.685C41.1545 12.325 41.3745 12.005 41.4745 11.765C41.5345 11.545 41.4545 11.405 41.2345 11.325C41.0345 11.245 40.7945 11.205 40.5345 11.225C40.2745 11.225 40.0745 11.285 39.9545 11.365C39.7145 11.545 39.4745 11.845 39.2745 12.225C39.0545 12.625 38.9145 13.005 38.8145 13.345ZM44.2612 14.465C43.3212 16.045 42.5412 17.505 41.9212 18.885C41.8212 19.165 41.8412 19.405 41.9812 19.625C42.1212 19.825 42.3212 19.965 42.5412 20.045C42.7812 20.125 42.9812 20.085 43.1612 19.965C43.3612 19.765 43.7212 19.385 44.2412 18.845L45.6412 17.425C46.1212 16.945 46.5212 16.545 46.8412 16.265C47.1812 15.985 47.3212 15.905 47.3012 16.045C47.2412 16.205 47.1612 16.385 47.0612 16.605C46.8012 17.125 46.6012 17.685 46.4412 18.285C46.2812 18.885 46.3812 19.305 46.7812 19.565C47.4412 19.845 48.3412 19.665 49.4612 19.085C50.5812 18.485 51.5812 17.845 52.5012 17.125C52.7212 16.945 52.8212 16.765 52.8212 16.565C52.8012 16.365 52.7212 16.225 52.5612 16.125C52.4012 16.045 52.2012 16.065 51.9812 16.225C51.9612 16.225 51.9412 16.245 51.9412 16.245C51.7212 16.405 51.3612 16.665 50.8212 17.025C50.3012 17.385 49.7612 17.705 49.2012 17.985C48.6412 18.265 48.2212 18.365 47.9212 18.285C47.8412 18.245 47.8612 18.045 48.0212 17.725C48.1612 17.405 48.3412 17.045 48.5612 16.625L49.0012 15.785C49.1212 15.525 49.2012 15.325 49.2412 15.165C49.2812 14.965 49.2212 14.745 49.0812 14.545C48.9412 14.325 48.7812 14.165 48.5612 14.045C48.3612 13.925 48.1612 13.885 47.9812 13.945C47.7612 14.045 47.4012 14.305 46.9212 14.705C46.4412 15.085 45.9612 15.505 45.5012 15.925C45.0212 16.345 44.7012 16.645 44.5012 16.845C44.5012 16.765 44.5612 16.645 44.6612 16.465C44.7812 16.305 44.9212 16.105 45.0812 15.865C45.2212 15.685 45.3612 15.465 45.5012 15.265C45.6212 15.065 45.6012 14.865 45.4612 14.645C45.3012 14.445 45.1012 14.305 44.8612 14.245C44.6212 14.185 44.4212 14.265 44.2612 14.465ZM48.8526 30.825C49.6726 29.825 50.4726 28.725 51.2326 27.525C51.9126 26.485 52.4326 25.745 52.8326 25.345L53.9526 24.265C56.4126 21.785 59.4526 19.125 63.0726 16.265C63.3126 16.065 63.4326 15.825 63.4126 15.545C63.4126 15.285 63.3326 15.065 63.1726 14.905C63.0126 14.745 62.8326 14.745 62.6126 14.905C60.6126 16.525 58.8926 18.005 57.4726 19.345C56.4526 20.265 55.6926 20.925 55.1526 21.365C55.3326 21.085 55.6726 20.465 56.1526 19.485C56.6326 18.525 57.0326 17.525 57.3726 16.485C57.7126 15.445 57.7526 14.685 57.5126 14.225C57.3926 14.045 57.2326 13.965 57.0526 13.985C56.8526 14.005 56.6726 14.065 56.5126 14.185L56.1526 14.425C56.1326 14.425 56.1326 14.445 56.1126 14.445C56.0126 14.385 55.8926 14.265 55.7726 14.105C55.6726 13.985 55.5726 13.865 55.4526 13.745C55.3326 13.645 55.1926 13.585 55.0326 13.585C54.6126 13.625 54.0526 13.945 53.3726 14.545C52.6726 15.165 52.0126 15.845 51.3726 16.625C50.7126 17.405 50.2126 18.065 49.8926 18.625C49.5326 19.245 49.3926 19.765 49.4526 20.185C49.5326 20.605 49.8326 20.765 50.3526 20.645C50.7126 20.525 51.2126 20.205 51.8326 19.685C52.4526 19.165 53.0926 18.585 53.7726 17.945C54.7326 17.045 55.5326 16.345 56.1726 15.885C55.8326 17.145 55.3726 18.285 54.8126 19.305C54.2326 20.325 53.5726 21.345 52.8526 22.405C52.7326 22.585 52.5926 22.785 52.4726 22.985C51.9726 23.665 51.2726 24.445 50.3926 25.305C49.4326 26.225 48.4726 27.285 47.4926 28.485C47.2126 28.905 47.1326 29.365 47.2726 29.825C47.3926 30.305 47.6126 30.645 47.9326 30.885C48.2526 31.125 48.5726 31.105 48.8526 30.825Z" fill="#3E3E3E"/>
<path d="M20.1191 42.065H15.1891V57.875H8.38905V42.065H3.45905V36.625H20.1191V42.065ZM21.9891 40.875H25.3891L27.2591 42.779C28.5964 41.555 30.2737 40.7503 32.2911 40.365L32.6991 46.791C32.1551 46.8137 31.4411 46.9497 30.5571 47.199C29.6957 47.4483 29.1064 47.7657 28.7891 48.151V57.875H21.9891V40.875ZM42.7971 40.365C48.2371 40.365 50.9571 42.235 50.9571 45.975V57.875H47.5571L45.6191 55.937C44.9617 56.7077 44.0664 57.3083 42.9331 57.739C41.7997 58.1697 40.7231 58.385 39.7031 58.385C38.7057 58.385 37.9011 58.3057 37.2891 58.147C36.6771 57.9883 36.0764 57.7163 35.4871 57.331C34.1951 56.515 33.5491 54.9963 33.5491 52.775C33.5491 48.695 36.6317 46.655 42.7971 46.655H44.1571V45.431C43.4317 45.3857 42.8311 45.363 42.3551 45.363C39.7937 45.363 37.5951 45.669 35.7591 46.281L34.9431 41.419C37.2097 40.7163 39.8277 40.365 42.7971 40.365ZM40.4171 52.027V53.421H41.8111C42.8084 53.421 43.4431 53.3077 43.7151 53.081C44.0097 52.8543 44.1571 52.5597 44.1571 52.197V50.599H42.7631C41.9471 50.599 41.3464 50.6897 40.9611 50.871C40.5984 51.0297 40.4171 51.415 40.4171 52.027ZM56.5801 57.875L52.3301 40.875H59.1301L61.0001 51.925H61.3401L63.2101 40.875H70.0101L65.7601 57.875H56.5801ZM78.3241 52.095V53.285C79.0041 53.353 79.6841 53.387 80.3641 53.387C82.4721 53.387 84.6028 53.047 86.7561 52.367L87.5721 57.365C85.0335 58.045 82.5175 58.385 80.0241 58.385C76.8508 58.385 74.5501 57.6483 73.1221 56.175C71.7168 54.679 71.0141 52.4123 71.0141 49.375C71.0141 46.3377 71.7168 44.0823 73.1221 42.609C74.5501 41.113 76.8395 40.365 79.9901 40.365C83.1635 40.365 85.3508 40.7957 86.5521 41.657C87.7535 42.5183 88.3541 44.1277 88.3541 46.485C88.3541 48.4797 87.6288 49.919 86.1781 50.803C84.7501 51.6643 82.1321 52.095 78.3241 52.095ZM78.3241 46.757V48.151H79.7181C80.5341 48.151 81.1235 48.0717 81.4861 47.913C81.8715 47.7317 82.0641 47.335 82.0641 46.723V45.329H80.6701C79.8541 45.329 79.2535 45.4197 78.8681 45.601C78.5055 45.7597 78.3241 46.145 78.3241 46.757ZM97.7188 35.265V53.013C98.4441 53.149 98.9994 53.2283 99.3848 53.251L99.0788 58.249C96.1774 58.249 94.2621 58.079 93.3328 57.739C92.1768 57.3083 91.4628 56.7643 91.1908 56.107C91.0094 55.699 90.9188 55.223 90.9188 54.679V35.775L97.7188 35.265Z" fill="#8A53FF"/>
</svg>
