<svg width="425" height="82" viewBox="0 0 425 82" fill="none" xmlns="http://www.w3.org/2000/svg">
<path d="M107.155 8.61664C108.275 8.61664 109.115 8.26664 109.675 7.63664C110.235 6.93664 110.445 6.23664 110.235 5.46664C110.095 4.69664 109.535 4.13664 108.485 3.78664C106.245 3.22664 102.745 3.01664 97.9852 3.15664C93.2252 3.36664 88.3252 3.64664 83.1452 4.13664C78.0352 4.62664 73.7652 5.11664 70.4052 5.46664C69.3552 5.60664 68.5852 5.67664 67.8852 5.74664C67.9552 3.92664 67.3952 2.87664 66.2752 2.59664C65.1552 2.31664 63.9652 2.45664 62.8452 3.15664C61.7952 3.92664 61.0252 4.69664 60.6752 5.39664C60.4652 5.81664 60.1852 6.16664 59.9052 6.44664C59.6252 6.72664 59.2052 6.86664 58.6452 6.93664C55.0752 7.42664 49.4052 8.33664 41.4952 9.59664C33.6552 10.9266 25.8852 12.4666 18.1852 14.1466C10.4852 15.8966 5.16518 17.5766 2.08518 19.2566C0.825175 20.2366 0.335177 21.2166 0.755176 22.3366C1.10518 23.3866 2.08518 23.8066 3.62518 23.5966C4.04518 23.5266 4.53518 23.3866 5.02518 23.3166C7.12518 22.7566 9.78518 22.2666 12.8652 21.7066C15.9452 21.2166 19.1652 21.0066 22.3152 21.0766C23.0852 21.0766 23.6452 20.7266 24.0652 20.0966C24.4852 19.3966 24.6252 18.6966 24.4152 17.8566C35.0552 15.6166 45.8352 13.7266 56.7552 12.1866C54.0952 16.2466 50.4552 22.3366 45.6952 30.5266C40.9352 38.7866 36.6652 47.1166 32.9552 55.6566C29.1752 64.1966 27.4252 70.9866 27.7752 76.0266C27.9852 77.4966 28.6152 78.8966 29.6652 80.1566C30.7152 81.3466 32.1152 81.9766 33.7952 81.9066C35.0552 81.7666 35.9652 81.2766 36.5952 80.5766C37.2252 79.8066 37.4352 79.0366 37.3652 78.2666C37.2252 77.4966 36.7352 76.9366 35.8952 76.6566C35.4752 76.5866 35.1252 76.5166 34.7752 76.5166C34.3552 76.5166 34.0752 76.5166 33.7252 76.3766C33.4452 76.3066 33.2352 76.0266 33.0252 75.5366C32.0452 72.3166 33.5152 66.4366 37.4352 57.8266C41.2852 49.2866 45.9052 40.5366 51.1552 31.5766C56.4752 22.6166 60.8152 15.8266 64.1052 11.2766L72.4352 10.2966C72.5752 10.2966 72.7152 10.2966 72.8552 10.2266C66.4852 20.9366 60.6752 31.5066 55.4252 42.0766C50.1752 52.6466 46.7452 60.3466 45.1352 65.1766C44.9952 65.8066 45.2052 66.3666 45.8352 66.9266C46.3952 67.4866 47.0952 67.8366 47.9352 67.9066C48.7052 68.0466 49.4052 67.6966 49.9652 66.9966C50.9452 65.5266 52.4152 63.4966 54.5152 60.9066C56.6152 58.3166 58.7852 55.6566 61.1652 52.9266C63.5452 50.1966 65.6452 47.8866 67.5352 46.0666C69.4252 44.2466 70.6152 43.4066 71.1752 43.5466C71.1752 43.5466 70.8252 44.1766 70.1952 45.5066C69.5652 46.7666 68.7952 48.4466 67.8852 50.4066C66.9752 52.3666 66.1352 54.3266 65.3652 56.4266C64.5252 58.5266 63.9652 60.3466 63.6152 62.0266C63.5452 63.0066 63.8952 63.6366 64.6652 63.9866C65.4352 64.4066 66.2752 64.4766 67.1152 64.2666C68.0252 64.0566 68.5152 63.6366 68.7252 62.8666C69.2852 59.7166 70.1252 56.6366 71.3852 53.7666C72.5752 50.8266 73.6952 48.3066 74.8152 46.2066C75.5152 44.8766 76.0052 43.7566 76.4252 42.9166C76.9852 41.0966 76.7052 39.6966 75.5152 38.5766C74.3252 37.4566 72.9252 37.1066 71.4552 37.5966C69.3552 38.5766 66.9752 40.6066 64.2452 43.5466C61.5152 46.5566 59.1352 49.2866 57.0352 51.8066C56.1252 52.9266 55.4252 53.8366 54.7952 54.4666C58.0152 47.4666 61.9352 39.8366 66.5552 31.7166C71.1752 23.5966 75.5152 16.1766 79.6452 9.45664C83.2152 9.03664 86.8552 8.75664 90.6352 8.54664C94.4152 8.33664 98.8952 8.33664 104.215 8.40664C104.705 8.40664 105.195 8.40664 105.685 8.47664C106.175 8.54664 106.665 8.61664 107.155 8.61664ZM80.2046 58.6666C82.8646 59.0866 86.5746 58.4566 91.3346 56.7066C96.1646 54.8866 100.925 52.7866 105.615 50.3366C110.375 47.8166 114.015 45.7866 116.465 44.1066C117.795 43.1266 118.495 42.2166 118.565 41.3066C118.565 40.4666 118.215 39.7666 117.515 39.4166C116.815 38.9966 115.975 38.9966 114.995 39.4866C110.865 42.4266 105.405 45.4366 98.6846 48.5866C91.8946 51.7366 86.7846 53.5566 83.2146 54.0466C82.5846 54.0466 82.3046 53.8366 82.3746 53.3466C82.4446 52.7866 82.6546 52.1566 83.1446 51.4566C83.5646 50.6866 84.1246 49.9866 84.7546 49.2866C85.3146 48.6566 85.9446 48.1666 86.5046 47.8166C87.4146 47.4666 88.3946 46.9766 89.4446 46.5566C91.7546 45.6466 93.9946 44.5266 96.3046 43.1266C98.6146 41.7966 100.295 40.1166 101.415 38.0166C102.255 35.8466 101.765 34.3766 99.8746 33.6066C97.9846 32.9066 95.0446 33.8166 91.0546 36.5466C86.5746 39.8366 82.7246 43.8266 79.6446 48.3766C78.3146 50.3366 77.4746 52.2966 77.2646 54.4666C76.9846 56.5666 77.9646 57.9666 80.2046 58.6666ZM129.901 68.6066C131.721 65.3866 134.101 61.2566 137.041 56.2866C139.981 51.3866 142.711 46.9066 145.231 42.9866C147.751 39.0666 149.291 37.0366 149.851 36.8966L145.231 48.5166C144.391 50.5466 143.691 52.5766 142.991 54.6766C142.361 56.7766 142.081 58.1766 142.291 58.8766C142.641 59.7866 143.271 60.4866 144.321 60.9766C145.371 61.3966 146.561 61.5366 147.891 61.1866C148.591 61.0466 149.361 60.4166 150.341 59.4366C151.251 58.4566 152.091 57.6166 152.651 56.9166C157.201 51.8766 161.751 46.6966 166.371 41.4466C175.471 30.7366 185.201 20.0966 195.631 9.59664C197.031 8.33664 197.661 7.84664 197.731 8.05664C197.731 8.26664 197.311 8.89664 196.541 10.0166C182.821 30.7366 173.581 51.9466 168.891 73.6466C168.471 77.1466 169.311 79.0366 171.411 79.4566C172.391 79.5266 173.231 79.3166 174.001 78.8266C174.771 78.2666 175.331 77.6366 175.541 76.9366C175.821 76.2366 175.611 75.6766 174.981 75.3266C174.701 75.1166 174.491 74.8366 174.491 74.3466C174.491 73.8566 174.491 73.2966 174.631 72.6666C177.151 61.4666 181.141 50.2666 186.531 39.0666C191.991 27.8666 198.291 16.8766 205.431 6.16664C205.991 4.97664 205.851 3.85664 205.151 2.87664C204.381 1.82664 203.401 1.19664 202.001 0.846636C200.671 0.426637 199.411 0.636639 198.151 1.40664C194.021 4.34664 188.281 9.87664 180.861 17.9266C173.511 26.0466 166.301 34.2366 159.091 42.6366L149.991 53.1366C149.641 53.5566 149.361 53.7666 149.221 53.9066C149.081 53.9766 148.941 53.9766 148.941 53.9066C148.941 53.8366 148.941 53.6966 149.011 53.4866L149.221 52.8566C149.291 52.7166 149.291 52.5766 149.361 52.4366C149.851 50.9666 150.411 49.3566 151.111 47.5366L152.651 43.4766C155.801 36.2666 159.231 29.0566 163.081 21.9866L163.221 21.7766C163.781 20.3766 163.781 19.3966 163.151 18.6266C162.451 17.8566 161.541 17.3666 160.421 17.2966C159.231 17.2266 158.251 17.5766 157.481 18.2766C156.711 19.0466 155.731 20.1666 154.681 21.4966L152.161 24.8566C143.341 36.8266 134.241 50.6166 124.861 66.2966C124.371 67.2766 124.371 68.0466 125.001 68.6766C125.631 69.2366 126.401 69.5866 127.381 69.6566C128.361 69.6566 129.201 69.3066 129.901 68.6066ZM245.535 6.16664C243.015 10.9966 239.585 16.8066 235.245 23.5966C228.945 24.1566 222.295 24.9266 215.435 25.8366C208.505 26.8166 202.555 27.8666 197.515 28.9866C196.605 29.3366 196.045 29.8966 195.905 30.6666C195.765 31.5066 195.905 32.2066 196.395 32.8366C196.885 33.4666 197.585 33.6766 198.635 33.4666C207.245 31.5066 218.445 29.8266 232.095 28.4966C228.105 34.5166 224.185 39.6966 220.405 44.0366C216.625 48.3766 213.545 50.6866 211.235 50.8266C210.535 50.8266 210.115 50.3366 210.115 49.4966C210.115 48.6566 210.325 47.6066 210.675 46.4166C211.095 45.2266 211.515 44.1066 212.005 43.0566C212.495 41.9366 212.845 41.1666 213.125 40.6066C213.265 40.1866 213.195 39.7666 212.845 39.2766C212.425 38.7866 212.005 38.3666 211.375 38.1566C210.815 37.8766 210.325 37.8766 209.835 38.0866C209.205 38.4366 208.505 38.9966 207.665 39.6966C205.425 37.5266 203.045 37.6666 200.315 40.0466C193.035 46.2766 188.975 51.2466 188.065 55.0966C187.225 59.0166 188.275 60.4866 191.215 59.6466C192.265 59.1566 193.735 58.1766 195.625 56.5666C197.445 55.0266 199.265 53.4166 201.155 51.6666C203.045 49.9166 204.585 48.5866 205.775 47.6066C205.495 52.2966 206.405 54.9566 208.575 55.4466C210.325 55.8666 212.285 55.4466 214.455 54.1166C216.555 52.8566 218.585 51.2466 220.545 49.2866C222.435 47.3266 223.835 45.6466 224.885 44.1766C224.605 44.8766 224.185 45.8566 223.555 47.1866L219.635 56.3566C218.165 59.8566 217.045 62.5866 216.415 64.6866C216.065 65.8766 216.345 66.7866 217.115 67.4166C217.885 68.0466 218.795 68.2566 219.775 68.1866C220.755 68.0466 221.385 67.4866 221.665 66.4366C224.255 56.3566 229.925 43.5466 238.745 27.9366C240.425 27.8666 242.105 27.7266 243.715 27.6566C244.695 27.5166 245.395 27.0966 245.815 26.3266C246.235 25.5566 246.305 24.7866 245.955 24.0866C245.605 23.3166 244.695 22.9666 243.225 23.0366C242.665 23.0366 242.105 23.1066 241.475 23.1066C244.205 18.3466 247.005 13.7966 249.735 9.45664C250.365 8.33664 250.365 7.42664 249.805 6.72664C249.175 5.95664 248.475 5.53664 247.495 5.39664C246.585 5.25664 245.955 5.53664 245.535 6.16664ZM229.721 74.6966C229.651 75.8166 230.071 76.6566 231.051 77.2166C232.031 77.7766 233.081 77.7766 234.131 77.2166C234.761 76.7966 235.181 76.3066 235.251 75.6766C235.391 75.0466 235.391 74.4166 235.321 73.7866C235.321 73.2966 235.321 72.8766 235.391 72.5266C237.911 64.2666 240.781 56.6366 244.141 49.7066C247.431 42.7066 251.141 35.4966 255.271 28.0766C255.481 27.5866 255.761 27.0966 256.041 26.6766C256.321 26.0466 256.811 25.6966 257.511 25.6266C258.701 25.3466 259.961 25.1366 261.221 24.9266C262.481 24.7866 264.721 24.6466 268.011 24.4366C271.301 24.2966 274.591 24.2966 277.881 24.5766C278.931 24.7166 279.701 24.5066 280.261 23.8766C280.821 23.3166 281.101 22.6166 280.961 21.8466C280.891 21.0766 280.401 20.5166 279.421 20.0966C278.721 19.8866 276.551 19.7466 272.981 19.8166C269.411 19.8166 266.541 20.0266 264.441 20.2366C262.341 20.5166 260.801 20.6566 259.821 20.7266C259.751 20.7266 259.681 20.7266 259.611 20.7966C259.681 20.5866 259.821 20.4466 259.891 20.3066C262.481 15.9666 265.421 12.1166 268.781 8.61664C269.201 7.91664 269.131 7.21664 268.711 6.51664C268.221 5.81664 267.661 5.39664 266.821 5.11664C266.051 4.83664 265.281 5.04664 264.651 5.67664C262.761 7.77664 260.871 10.1566 259.051 12.8866C257.301 15.6166 255.691 18.1366 254.221 20.5166C253.871 21.2166 253.311 21.5666 252.541 21.6366C251.631 21.7766 249.811 22.1266 247.221 22.6166C244.561 23.1766 241.971 23.7366 239.381 24.3666C236.861 24.9966 235.111 25.5566 234.341 25.9766C233.501 26.6066 233.081 27.3766 233.151 28.1466C233.221 28.9166 233.571 29.5466 234.271 29.9666C234.971 30.4566 235.811 30.4566 236.861 30.0366C237.631 29.6866 238.961 29.3366 240.781 28.8466C242.601 28.3566 244.491 27.9366 246.381 27.5166C248.201 27.1666 249.601 26.8866 250.441 26.8166C250.371 26.9566 250.301 27.0966 250.231 27.1666L250.021 27.7266C246.801 33.2566 242.881 40.9566 238.261 50.7566C233.641 60.6266 230.771 68.5366 229.721 74.6966ZM252.402 58.6666C255.062 59.0866 258.772 58.4566 263.532 56.7066C268.362 54.8866 273.122 52.7866 277.812 50.3366C282.572 47.8166 286.212 45.7866 288.662 44.1066C289.992 43.1266 290.692 42.2166 290.762 41.3066C290.762 40.4666 290.412 39.7666 289.712 39.4166C289.012 38.9966 288.172 38.9966 287.192 39.4866C283.062 42.4266 277.602 45.4366 270.882 48.5866C264.092 51.7366 258.982 53.5566 255.412 54.0466C254.782 54.0466 254.502 53.8366 254.572 53.3466C254.642 52.7866 254.852 52.1566 255.342 51.4566C255.762 50.6866 256.322 49.9866 256.952 49.2866C257.512 48.6566 258.142 48.1666 258.702 47.8166C259.612 47.4666 260.592 46.9766 261.642 46.5566C263.952 45.6466 266.192 44.5266 268.502 43.1266C270.812 41.7966 272.492 40.1166 273.612 38.0166C274.452 35.8466 273.962 34.3766 272.072 33.6066C270.182 32.9066 267.242 33.8166 263.252 36.5466C258.772 39.8366 254.922 43.8266 251.842 48.3766C250.512 50.3366 249.672 52.2966 249.462 54.4666C249.182 56.5666 250.162 57.9666 252.402 58.6666ZM284.886 60.6266C286.426 57.9666 288.596 54.7466 291.256 51.0366C293.916 47.2566 296.226 44.5266 298.116 42.7066C298.326 42.5666 298.466 42.5666 298.536 42.7066V43.6866C298.396 44.3166 298.396 45.0166 298.466 45.8566C298.536 46.6266 298.816 47.2566 299.376 47.8166C300.286 48.5166 301.966 48.5866 304.486 48.0966C306.936 47.6766 309.526 46.7666 312.116 45.4366C313.096 44.8766 313.656 44.1766 313.796 43.4066C313.936 42.6366 313.796 42.0066 313.376 41.4466C313.026 40.9566 312.536 40.8866 311.906 41.2366C310.296 42.2166 308.616 42.9866 306.866 43.4766C305.186 44.0366 303.926 44.1066 303.226 43.6166C302.946 43.4066 302.806 42.9866 302.806 42.4966C302.736 41.9366 302.806 41.3766 302.876 40.7466C302.946 39.9066 302.946 39.1366 302.876 38.4366C302.666 37.2466 302.036 36.4766 300.986 36.1266C299.936 35.7766 298.886 35.9866 297.836 36.8266C296.646 37.8766 295.386 39.2766 293.916 41.0266C292.516 42.8466 291.116 44.5966 289.786 46.3466C289.156 47.1866 288.596 47.9566 288.036 48.6566C288.106 48.2366 288.526 47.2566 289.296 45.7166C290.066 44.1766 290.906 42.6366 291.746 41.0266C292.656 39.4866 293.286 38.4366 293.776 37.9466C294.756 37.0366 295.176 36.1966 295.036 35.4266C294.896 34.5866 294.546 34.0266 293.916 33.5366C293.356 33.1866 292.796 33.0466 292.166 33.2566C291.466 33.4666 290.766 34.1666 290.066 35.3566C287.266 40.1866 285.096 44.3166 283.556 47.7466C282.016 51.1066 280.616 54.4666 279.426 57.7566C279.006 59.0866 279.146 60.1366 279.846 60.9066C280.476 61.6066 281.386 62.0266 282.366 62.0266C283.416 62.0266 284.256 61.5366 284.886 60.6266ZM326.234 43.7566C326.444 43.9666 326.654 44.3866 326.724 44.8766L326.934 46.8366C327.004 48.2366 327.144 49.5666 327.494 50.8966C327.844 52.2966 328.614 53.2766 329.734 53.9066C332.394 54.7466 335.334 53.9066 338.764 51.3166C342.124 48.7266 344.924 46.1366 347.164 43.5466C347.724 42.9166 347.794 42.2866 347.584 41.7266C347.304 41.1666 346.884 40.7466 346.254 40.5366C345.694 40.3266 345.204 40.3966 344.714 40.7466C342.334 43.0566 339.954 45.1566 337.574 47.0466C335.194 48.9366 333.514 49.7766 332.604 49.5666C332.254 49.4266 332.044 48.8666 331.974 48.0266C331.834 47.1866 331.764 46.2066 331.764 45.0866C331.764 43.4766 331.624 42.0066 331.414 40.7466C330.504 37.8066 328.824 36.8266 326.514 37.7366C324.134 38.6466 321.684 40.3966 319.024 42.9866C316.434 45.5066 314.334 47.7466 312.584 49.7766C312.164 50.2666 311.744 50.6866 311.464 51.0366C311.254 50.7566 311.884 49.0066 313.424 45.8566C314.964 42.7066 316.924 38.8566 319.304 34.4466C321.684 29.9666 324.064 25.6266 326.444 21.4266C326.514 21.2866 326.724 21.1466 326.864 21.1466H327.494C327.704 21.2166 327.914 21.2166 328.054 21.2166C328.264 21.1466 328.404 21.0766 328.474 20.9366C329.594 18.5566 330.574 16.0366 331.554 13.4466C332.324 11.4866 332.884 10.2266 333.164 9.59664C333.654 8.75664 333.584 7.98664 333.024 7.21664C332.534 6.51664 331.834 6.02664 330.994 5.81664C330.154 5.67664 329.384 5.95664 328.894 6.72664C323.994 14.7766 318.954 24.0866 313.704 34.8666C308.454 45.5766 304.604 53.7666 302.154 59.5766C301.594 61.1866 301.524 62.4466 302.014 63.2866C302.574 64.1266 303.344 64.5466 304.394 64.4766C305.374 64.4766 306.354 63.9166 307.264 62.7966L310.624 58.8766C312.444 56.7766 314.404 54.5366 316.644 52.0866C318.884 49.6366 320.914 47.6066 322.734 45.9266C324.554 44.2466 325.744 43.5466 326.234 43.7566ZM351.783 46.4166C353.743 47.8866 356.333 48.7966 359.483 49.0766C362.703 49.3566 365.573 48.7966 368.163 47.2566C368.583 46.9066 368.723 46.4866 368.723 45.8566C368.653 45.2266 368.373 44.6666 368.023 44.2466C367.603 43.8266 367.043 43.7566 366.413 44.1066C365.433 44.6666 364.033 44.9466 362.213 44.9466C360.393 44.9466 358.713 44.5966 357.103 43.8266C355.493 43.0566 354.443 41.7966 354.023 40.0466C353.813 39.2066 353.393 38.5066 352.763 38.0866C352.133 37.6666 351.363 37.5966 350.523 37.8066C349.963 37.8766 349.473 37.9466 349.053 37.8766C348.703 37.8066 348.353 37.8766 347.933 37.9466C347.513 38.0866 346.953 38.3666 346.323 38.8566C344.153 40.5366 342.123 42.7766 340.093 45.5766C338.063 48.3766 336.943 51.1766 336.733 53.9766C336.733 55.5866 337.433 56.8466 338.833 57.6166C340.163 58.4566 341.983 58.1066 344.293 56.5666C346.533 55.0966 349.053 51.6666 351.783 46.4166ZM341.983 52.7166C341.843 52.5066 341.913 52.0866 342.263 51.3166C342.613 50.5466 343.103 49.7766 343.663 48.8666C344.223 47.8866 344.853 47.1166 345.413 46.3466C346.043 45.5766 346.463 45.0866 346.813 44.8766C346.883 45.0866 346.673 45.5766 346.253 46.4166C345.833 47.2566 345.273 48.1666 344.573 49.1466C343.943 50.1266 343.383 50.9666 342.823 51.6666C342.333 52.3666 341.983 52.7166 341.983 52.7166ZM365.482 60.6266C367.022 57.9666 369.192 54.7466 371.852 51.0366C374.512 47.2566 376.822 44.5266 378.712 42.7066C378.922 42.5666 379.062 42.5666 379.132 42.7066V43.6866C378.992 44.3166 378.992 45.0166 379.062 45.8566C379.132 46.6266 379.412 47.2566 379.972 47.8166C380.882 48.5166 382.562 48.5866 385.082 48.0966C387.532 47.6766 390.122 46.7666 392.712 45.4366C393.692 44.8766 394.252 44.1766 394.392 43.4066C394.532 42.6366 394.392 42.0066 393.972 41.4466C393.622 40.9566 393.132 40.8866 392.502 41.2366C390.892 42.2166 389.212 42.9866 387.462 43.4766C385.782 44.0366 384.522 44.1066 383.822 43.6166C383.542 43.4066 383.402 42.9866 383.402 42.4966C383.332 41.9366 383.402 41.3766 383.472 40.7466C383.542 39.9066 383.542 39.1366 383.472 38.4366C383.262 37.2466 382.632 36.4766 381.582 36.1266C380.532 35.7766 379.482 35.9866 378.432 36.8266C377.242 37.8766 375.982 39.2766 374.512 41.0266C373.112 42.8466 371.712 44.5966 370.382 46.3466C369.752 47.1866 369.192 47.9566 368.632 48.6566C368.702 48.2366 369.122 47.2566 369.892 45.7166C370.662 44.1766 371.502 42.6366 372.342 41.0266C373.252 39.4866 373.882 38.4366 374.372 37.9466C375.352 37.0366 375.772 36.1966 375.632 35.4266C375.492 34.5866 375.142 34.0266 374.512 33.5366C373.952 33.1866 373.392 33.0466 372.762 33.2566C372.062 33.4666 371.362 34.1666 370.662 35.3566C367.862 40.1866 365.692 44.3166 364.152 47.7466C362.612 51.1066 361.212 54.4666 360.022 57.7566C359.602 59.0866 359.742 60.1366 360.442 60.9066C361.072 61.6066 361.982 62.0266 362.962 62.0266C364.012 62.0266 364.852 61.5366 365.482 60.6266ZM394.44 37.2466C391.15 42.7766 388.42 47.8866 386.25 52.7166C385.9 53.6966 385.97 54.5366 386.46 55.3066C386.95 56.0066 387.65 56.4966 388.42 56.7766C389.26 57.0566 389.96 56.9166 390.59 56.4966C391.29 55.7966 392.55 54.4666 394.37 52.5766L399.27 47.6066C400.95 45.9266 402.35 44.5266 403.47 43.5466C404.66 42.5666 405.15 42.2866 405.08 42.7766C404.87 43.3366 404.59 43.9666 404.24 44.7366C403.33 46.5566 402.63 48.5166 402.07 50.6166C401.51 52.7166 401.86 54.1866 403.26 55.0966C405.57 56.0766 408.72 55.4466 412.64 53.4166C416.56 51.3166 420.06 49.0766 423.28 46.5566C424.05 45.9266 424.4 45.2966 424.4 44.5966C424.33 43.8966 424.05 43.4066 423.49 43.0566C422.93 42.7766 422.23 42.8466 421.46 43.4066C421.39 43.4066 421.32 43.4766 421.32 43.4766C420.55 44.0366 419.29 44.9466 417.4 46.2066C415.58 47.4666 413.69 48.5866 411.73 49.5666C409.77 50.5466 408.3 50.8966 407.25 50.6166C406.97 50.4766 407.04 49.7766 407.6 48.6566C408.09 47.5366 408.72 46.2766 409.49 44.8066L411.03 41.8666C411.45 40.9566 411.73 40.2566 411.87 39.6966C412.01 38.9966 411.8 38.2266 411.31 37.5266C410.82 36.7566 410.26 36.1966 409.49 35.7766C408.79 35.3566 408.09 35.2166 407.46 35.4266C406.69 35.7766 405.43 36.6866 403.75 38.0866C402.07 39.4166 400.39 40.8866 398.78 42.3566C397.1 43.8266 395.98 44.8766 395.28 45.5766C395.28 45.2966 395.49 44.8766 395.84 44.2466C396.26 43.6866 396.75 42.9866 397.31 42.1466C397.8 41.5166 398.29 40.7466 398.78 40.0466C399.2 39.3466 399.13 38.6466 398.64 37.8766C398.08 37.1766 397.38 36.6866 396.54 36.4766C395.7 36.2666 395 36.5466 394.44 37.2466Z" fill="white"/>
</svg>
